Coordinates
version=1
nRows=21
nColumns=22
inDegrees=yes

Units are S.I. units (second, meters, Newtons, ...)
If the header above contains a line with 'inDegrees', this indicates whether rotational values are in degrees (yes) or radians (no).

endheader
time	pelvis_tilt	pelvis_list	pelvis_rotation	pelvis_tx	pelvis_ty	pelvis_tz	hip_flexion_r	hip_adduction_r	hip_rotation_r	knee_angle_r	ankle_angle_r	subtalar_angle_r	hip_flexion_l	hip_adduction_l	hip_rotation_l	knee_angle_l	ankle_angle_l	subtalar_angle_l	lumbar_extension	lumbar_bending	lumbar_rotation
      4.09000000	     -0.41916409	      5.57951560	    159.45150965	      0.35657062	      0.89148881	     -0.43616848	     22.07645617	      2.47151805	     11.86033419	    -19.04242851	     -4.55312749	     11.65951289	    -15.94719746	     -0.03631042	      8.71857254	    -26.76326393	      8.00463362	     -8.95180601	     -6.55548534	     -0.37745800	     -1.68968285
      4.10000000	     -0.33840374	      5.83074696	    160.23979340	      0.34704193	      0.89225474	     -0.44027051	     22.00165889	      2.67910617	     11.23487122	    -20.29919950	     -4.31570809	     11.69521426	    -15.14189064	     -0.51521679	      8.11786046	    -29.13975852	      6.12831851	     -8.19824372	     -6.45182648	      0.07956726	     -1.62801315
      4.11000000	     -0.25547696	      6.13506741	    161.05329658	      0.33758576	      0.89315849	     -0.44417579	     21.83570155	      2.89677078	     10.51434604	    -21.40594795	     -3.90424575	     11.75679695	    -14.15952024	     -1.06779709	      7.44519645	    -31.73729412	      4.02115619	     -7.47111117	     -6.37074078	      0.58314088	     -1.51998085
      4.12000000	     -0.18457448	      6.54992038	    161.93288718	      0.32825930	      0.89422836	     -0.44784376	     21.50075237	      3.17524096	      9.72051875	    -22.26660120	     -3.45657469	     11.80686620	    -13.02391363	     -1.77081002	      6.73769533	    -34.54285915	      1.75007861	     -6.92879860	     -6.35500120	      1.19331191	     -1.43991511
      4.13000000	     -0.07329988	      6.98787750	    162.81273977	      0.31914950	      0.89527470	     -0.45135166	     21.13629118	      3.47458218	      8.85432003	    -22.96826966	     -2.89247723	     11.82243352	    -11.67957671	     -2.54213424	      6.02439175	    -37.49274565	     -0.63437930	     -6.40442924	     -6.31288944	      1.82059474	     -1.26057238
      4.14000000	      0.04168886	      7.48470967	    163.72929567	      0.31030301	      0.89636149	     -0.45467233	     20.65854408	      3.82122201	      7.97052630	    -23.43424043	     -2.34415732	     11.79643587	    -10.17862563	     -3.41259730	      5.37759863	    -40.55712477	     -3.08460533	     -6.03851742	     -6.30391758	      2.49027667	     -1.06272585
      4.15000000	      0.14262157	      8.02743877	    164.66618891	      0.30173444	      0.89747113	     -0.45781098	     20.08336086	      4.20271318	      7.02098273	    -23.70518175	     -1.84595493	     11.74175123	     -8.56263858	     -4.35092375	      4.82969832	    -43.68079975	     -5.51022031	     -5.79710515	     -6.34078714	      3.18067752	     -0.78744996
      4.16000000	      0.25485701	      8.55222422	    165.61409659	      0.29348682	      0.89852100	     -0.46078981	     19.46935819	      4.57868983	      6.07189961	    -23.80324643	     -1.35547706	     11.62505666	     -6.79266476	     -5.28390762	      4.41636386	    -46.83908436	     -7.86862854	     -5.62479872	     -6.37629310	      3.82259883	     -0.45075016
      4.17000000	      0.35508605	      9.04203098	    166.57308012	      0.28554379	      0.89952716	     -0.46360527	     18.81266328	      4.93058783	      5.12440175	    -23.75979616	     -0.88381233	     11.44376265	     -4.91246496	     -6.16923513	      4.14998482	    -49.98096713	    -10.09361198	     -5.47423858	     -6.42920992	      4.39122075	     -0.05901692
      4.18000000	      0.40068167	      9.48234740	    167.54974210	      0.27787319	      0.90054789	     -0.46624242	     18.08637751	      5.23592921	      4.17082048	    -23.60338683	     -0.46159490	     11.22394557	     -2.99010115	     -6.96634000	      4.02158565	    -53.04691256	    -12.12456396	     -5.27158954	     -6.54250654	      4.86145644	      0.36993124
      4.19000000	      0.45651643	      9.80963763	    168.52334749	      0.27046003	      0.90146591	     -0.46872891	     17.38901254	      5.45808676	      3.27261469	    -23.37752263	      0.05628052	     10.86896817	     -0.96679248	     -7.60035209	      4.01952643	    -55.99542940	    -13.86285649	     -4.97113703	     -6.61840794	      5.17807249	      0.83727011
      4.20000000	      0.43336720	     10.05266179	    169.51231387	      0.26321236	      0.90244842	     -0.47101596	     16.62172762	      5.59635817	      2.36758710	    -23.09251187	      0.55867690	     10.48769087	      1.01155128	     -8.07296394	      4.10160166	    -58.74597542	    -15.23114697	     -4.55099212	     -6.76119904	      5.36294343	      1.32556516
      4.21000000	      0.34760221	     10.19026378	    170.50140526	      0.25608533	      0.90348552	     -0.47309877	     15.81854513	      5.63675356	      1.47375368	    -22.78844281	      1.07708784	     10.07934511	      2.93433699	     -8.35836587	      4.21665186	    -61.25519944	    -16.13587515	     -4.07449685	     -6.94287614	      5.40580194	      1.83074088
      4.22000000	      0.22733785	     10.20166745	    171.46218740	      0.24901913	      0.90458163	     -0.47499733	     14.99987193	      5.57368050	      0.67294018	    -22.46443660	      1.63474246	      9.60456538	      4.79660411	     -8.43733548	      4.30564079	    -63.47979312	    -16.54907092	     -3.58123303	     -7.12077252	      5.29536571	      2.35471405
      4.23000000	      0.04801021	     10.11347144	    172.39677931	      0.24196412	      0.90580652	     -0.47668784	     14.14024186	      5.42318207	     -0.05685102	    -22.14733234	      2.17062347	      9.14657400	      6.54505305	     -8.34996061	      4.31417401	    -65.39778177	    -16.45576992	     -3.21226327	     -7.32873668	      5.06705782	      2.88777205
      4.24000000	     -0.19636179	      9.92689346	    173.30408745	      0.23486628	      0.90719317	     -0.47813924	     13.22188568	      5.18003449	     -0.71606955	    -21.83294510	      2.66522491	      8.79350728	      8.14786983	     -8.10173201	      4.21828040	    -66.99076568	    -15.85003420	     -3.04888007	     -7.57087117	      4.73205651	      3.41363291
      4.25000000	     -0.43734625	      9.64869422	    174.12219644	      0.22774420	      0.90863449	     -0.47945653	     12.32779255	      4.87578600	     -1.23436342	    -21.55350430	      3.19449405	      8.32459038	      9.66390243	     -7.74204187	      3.93602936	    -68.26871904	    -14.86322644	     -3.02630188	     -7.77645651	      4.30582503	      3.98717280
      4.26000000	     -0.73436045	      9.28319741	    174.89280650	      0.22058076	      0.91021238	     -0.48053152	     11.39008901	      4.48031308	     -1.71109732	    -21.30301198	      3.66804572	      8.04802867	     11.01982661	     -7.26201830	      3.50781628	    -69.21902810	    -13.55943305	     -3.13738072	     -8.02112033	      3.79803278	      4.57657871
      4.27000000	     -1.02971115	      8.83105655	    175.59610148	      0.21336375	      0.91183127	     -0.48144028	     10.43929061	      4.01268441	     -2.08751664	    -21.02851790	      4.14726286	      7.69225638	     12.27363140	     -6.69197114	      2.91394225	    -69.85328692	    -12.06390414	     -3.38573083	     -8.23617070	      3.21164825	      5.15570567
      4.28000000	     -1.32248505	      8.32382128	    176.24272644	      0.20614719	      0.91343789	     -0.48217308	      9.49381606	      3.49227699	     -2.43792310	    -20.76211584	      4.62607282	      7.43076377	     13.43249621	     -6.07745105	      2.17690558	    -70.19219270	    -10.45642353	     -3.59603739	     -8.44004937	      2.58659418	      5.73914117
      4.29000000	     -1.60028594	      7.76327331	    176.85207493	      0.19895348	      0.91498170	     -0.48274368	      8.55572377	      2.92062738	     -2.77272354	    -20.48281025	      5.11833779	      7.17774963	     14.51908156	     -5.42392204	      1.33419717	    -70.25086823	     -8.83325011	     -3.76117320	     -8.62552073	      1.92138650	      6.29658438
